# https://github.com/mikedh/trimesh
v 0.00000000 -1.00000000 -0.11919750
v 0.24686981 -0.33978714 -0.11919750
v 0.95105652 -0.30901699 -0.11919750
v 0.39944374 0.12978714 -0.11919750
v 0.58778525 0.80901699 -0.11919750
v 0.00000000 0.42000000 -0.11919750
v -0.58778525 0.80901699 -0.11919750
v -0.39944374 0.12978714 -0.11919750
v -0.95105652 -0.30901699 -0.11919750
v -0.24686981 -0.33978714 -0.11919750
v 0.00000000 0.00000000 -0.11919750
v 0.00000000 -1.00000000 0.10080250
v 0.24686981 -0.33978714 0.10080250
v 0.95105652 -0.30901699 0.10080250
v 0.39944374 0.12978714 0.10080250
v 0.58778525 0.80901699 0.10080250
v 0.00000000 0.42000000 0.10080250
v -0.58778525 0.80901699 0.10080250
v -0.39944374 0.12978714 0.10080250
v -0.95105652 -0.30901699 0.10080250
v -0.24686981 -0.33978714 0.10080250
v 0.00000000 0.00000000 0.18080250
f 11 2 1
f 11 3 2
f 11 4 3
f 11 5 4
f 11 6 5
f 11 7 6
f 11 8 7
f 11 9 8
f 11 10 9
f 11 1 10
f 13 22 12
f 14 22 13
f 15 22 14
f 16 22 15
f 17 22 16
f 18 22 17
f 19 22 18
f 20 22 19
f 21 22 20
f 12 22 21
f 1 2 12
f 2 13 12
f 2 3 13
f 3 14 13
f 3 4 14
f 4 15 14
f 4 5 15
f 5 16 15
f 5 6 16
f 6 17 16
f 6 7 17
f 7 18 17
f 7 8 18
f 8 19 18
f 8 9 19
f 9 20 19
f 9 10 20
f 10 21 20
f 10 1 21
f 1 12 21

